<mxfile host="app.diagrams.net" modified="2023-03-13T15:17:32.873Z" agent="5.0 (X11)" etag="5pW193q9Gz3Vm7SfiKn7" version="21.0.2" type="github">
  <diagram name="Page-1" id="SzETu5OqmAxXUGF3qz8U">
    <mxGraphModel dx="1434" dy="726" grid="1" gridSize="10" guides="1" tooltips="1" connect="1" arrows="1" fold="1" page="1" pageScale="1" pageWidth="850" pageHeight="1100" math="0" shadow="0">
      <root>
        <mxCell id="0" />
        <mxCell id="1" parent="0" />
        <mxCell id="Pl9r5RtDEmGn-0LGVPxG-27" value="" style="rounded=0;whiteSpace=wrap;html=1;" vertex="1" parent="1">
          <mxGeometry x="60" y="140" width="750" height="420" as="geometry" />
        </mxCell>
        <mxCell id="Pl9r5RtDEmGn-0LGVPxG-1" value="" style="ellipse;whiteSpace=wrap;html=1;aspect=fixed;fillColor=#e1d5e7;strokeColor=#9673a6;" vertex="1" parent="1">
          <mxGeometry x="187" y="275" width="30" height="30" as="geometry" />
        </mxCell>
        <mxCell id="Pl9r5RtDEmGn-0LGVPxG-2" value="" style="endArrow=classic;html=1;rounded=0;exitX=1;exitY=0.5;exitDx=0;exitDy=0;entryX=0;entryY=0.5;entryDx=0;entryDy=0;" edge="1" parent="1" source="Pl9r5RtDEmGn-0LGVPxG-1" target="Pl9r5RtDEmGn-0LGVPxG-3">
          <mxGeometry width="50" height="50" relative="1" as="geometry">
            <mxPoint x="245" y="135" as="sourcePoint" />
            <mxPoint x="307" y="305" as="targetPoint" />
          </mxGeometry>
        </mxCell>
        <mxCell id="Pl9r5RtDEmGn-0LGVPxG-3" value="" style="ellipse;whiteSpace=wrap;html=1;aspect=fixed;fillColor=#e1d5e7;strokeColor=#9673a6;" vertex="1" parent="1">
          <mxGeometry x="327" y="275" width="30" height="30" as="geometry" />
        </mxCell>
        <mxCell id="Pl9r5RtDEmGn-0LGVPxG-4" value="" style="ellipse;whiteSpace=wrap;html=1;aspect=fixed;fillColor=#e1d5e7;strokeColor=#9673a6;" vertex="1" parent="1">
          <mxGeometry x="427" y="285" width="30" height="30" as="geometry" />
        </mxCell>
        <mxCell id="Pl9r5RtDEmGn-0LGVPxG-5" value="" style="ellipse;whiteSpace=wrap;html=1;aspect=fixed;fillColor=#e1d5e7;strokeColor=#9673a6;" vertex="1" parent="1">
          <mxGeometry x="157" y="355" width="30" height="30" as="geometry" />
        </mxCell>
        <mxCell id="Pl9r5RtDEmGn-0LGVPxG-6" style="edgeStyle=orthogonalEdgeStyle;rounded=0;orthogonalLoop=1;jettySize=auto;html=1;exitX=0.5;exitY=0;exitDx=0;exitDy=0;" edge="1" parent="1" source="Pl9r5RtDEmGn-0LGVPxG-7" target="Pl9r5RtDEmGn-0LGVPxG-8">
          <mxGeometry relative="1" as="geometry" />
        </mxCell>
        <mxCell id="Pl9r5RtDEmGn-0LGVPxG-7" value="" style="ellipse;whiteSpace=wrap;html=1;aspect=fixed;fillColor=#e1d5e7;strokeColor=#9673a6;" vertex="1" parent="1">
          <mxGeometry x="247" y="442" width="30" height="30" as="geometry" />
        </mxCell>
        <mxCell id="Pl9r5RtDEmGn-0LGVPxG-8" value="" style="ellipse;whiteSpace=wrap;html=1;aspect=fixed;fillColor=#e1d5e7;strokeColor=#9673a6;" vertex="1" parent="1">
          <mxGeometry x="247" y="345" width="30" height="30" as="geometry" />
        </mxCell>
        <mxCell id="Pl9r5RtDEmGn-0LGVPxG-9" value="" style="ellipse;whiteSpace=wrap;html=1;aspect=fixed;fillColor=#e1d5e7;strokeColor=#9673a6;" vertex="1" parent="1">
          <mxGeometry x="342" y="349" width="30" height="30" as="geometry" />
        </mxCell>
        <mxCell id="Pl9r5RtDEmGn-0LGVPxG-10" value="" style="ellipse;whiteSpace=wrap;html=1;aspect=fixed;fillColor=#e1d5e7;strokeColor=#9673a6;" vertex="1" parent="1">
          <mxGeometry x="407" y="395" width="30" height="30" as="geometry" />
        </mxCell>
        <mxCell id="Pl9r5RtDEmGn-0LGVPxG-11" value="" style="endArrow=classic;html=1;rounded=0;exitX=0.5;exitY=1;exitDx=0;exitDy=0;entryX=0.5;entryY=0;entryDx=0;entryDy=0;" edge="1" parent="1" source="Pl9r5RtDEmGn-0LGVPxG-3" target="Pl9r5RtDEmGn-0LGVPxG-9">
          <mxGeometry width="50" height="50" relative="1" as="geometry">
            <mxPoint x="227" y="300" as="sourcePoint" />
            <mxPoint x="317" y="315" as="targetPoint" />
          </mxGeometry>
        </mxCell>
        <mxCell id="Pl9r5RtDEmGn-0LGVPxG-12" value="" style="endArrow=classic;html=1;rounded=0;exitX=1;exitY=0.5;exitDx=0;exitDy=0;entryX=0;entryY=0.5;entryDx=0;entryDy=0;" edge="1" parent="1" source="Pl9r5RtDEmGn-0LGVPxG-9" target="Pl9r5RtDEmGn-0LGVPxG-4">
          <mxGeometry width="50" height="50" relative="1" as="geometry">
            <mxPoint x="352" y="315" as="sourcePoint" />
            <mxPoint x="352" y="365" as="targetPoint" />
          </mxGeometry>
        </mxCell>
        <mxCell id="Pl9r5RtDEmGn-0LGVPxG-13" value="" style="endArrow=classic;html=1;rounded=0;exitX=0.5;exitY=1;exitDx=0;exitDy=0;entryX=0.5;entryY=0;entryDx=0;entryDy=0;" edge="1" parent="1" source="Pl9r5RtDEmGn-0LGVPxG-4" target="Pl9r5RtDEmGn-0LGVPxG-10">
          <mxGeometry width="50" height="50" relative="1" as="geometry">
            <mxPoint x="367" y="380" as="sourcePoint" />
            <mxPoint x="437" y="310" as="targetPoint" />
          </mxGeometry>
        </mxCell>
        <mxCell id="Pl9r5RtDEmGn-0LGVPxG-14" value="" style="endArrow=classic;html=1;rounded=0;exitX=0;exitY=0.5;exitDx=0;exitDy=0;entryX=1;entryY=0.5;entryDx=0;entryDy=0;" edge="1" parent="1" source="Pl9r5RtDEmGn-0LGVPxG-10" target="Pl9r5RtDEmGn-0LGVPxG-7">
          <mxGeometry width="50" height="50" relative="1" as="geometry">
            <mxPoint x="452" y="325" as="sourcePoint" />
            <mxPoint x="432" y="405" as="targetPoint" />
          </mxGeometry>
        </mxCell>
        <mxCell id="Pl9r5RtDEmGn-0LGVPxG-15" value="" style="endArrow=classic;html=1;rounded=0;exitX=0.5;exitY=1;exitDx=0;exitDy=0;entryX=0.5;entryY=0;entryDx=0;entryDy=0;" edge="1" parent="1" source="Pl9r5RtDEmGn-0LGVPxG-1" target="Pl9r5RtDEmGn-0LGVPxG-5">
          <mxGeometry width="50" height="50" relative="1" as="geometry">
            <mxPoint x="227" y="300" as="sourcePoint" />
            <mxPoint x="337" y="300" as="targetPoint" />
          </mxGeometry>
        </mxCell>
        <mxCell id="Pl9r5RtDEmGn-0LGVPxG-16" value="" style="endArrow=classic;html=1;rounded=0;exitX=1;exitY=0.5;exitDx=0;exitDy=0;entryX=0;entryY=0.5;entryDx=0;entryDy=0;" edge="1" parent="1" source="Pl9r5RtDEmGn-0LGVPxG-5" target="Pl9r5RtDEmGn-0LGVPxG-8">
          <mxGeometry width="50" height="50" relative="1" as="geometry">
            <mxPoint x="212" y="315" as="sourcePoint" />
            <mxPoint x="182" y="365" as="targetPoint" />
          </mxGeometry>
        </mxCell>
        <mxCell id="Pl9r5RtDEmGn-0LGVPxG-17" value="" style="endArrow=classic;html=1;rounded=0;exitX=0;exitY=0.5;exitDx=0;exitDy=0;entryX=0.5;entryY=1;entryDx=0;entryDy=0;" edge="1" parent="1" source="Pl9r5RtDEmGn-0LGVPxG-7" target="Pl9r5RtDEmGn-0LGVPxG-5">
          <mxGeometry width="50" height="50" relative="1" as="geometry">
            <mxPoint x="197" y="380" as="sourcePoint" />
            <mxPoint x="257" y="370" as="targetPoint" />
          </mxGeometry>
        </mxCell>
        <mxCell id="Pl9r5RtDEmGn-0LGVPxG-18" value="" style="endArrow=classic;html=1;rounded=0;exitX=1;exitY=0;exitDx=0;exitDy=0;entryX=0;entryY=1;entryDx=0;entryDy=0;" edge="1" parent="1" source="Pl9r5RtDEmGn-0LGVPxG-8" target="Pl9r5RtDEmGn-0LGVPxG-3">
          <mxGeometry width="50" height="50" relative="1" as="geometry">
            <mxPoint x="197" y="380" as="sourcePoint" />
            <mxPoint x="257" y="370" as="targetPoint" />
          </mxGeometry>
        </mxCell>
        <mxCell id="Pl9r5RtDEmGn-0LGVPxG-19" value="" style="endArrow=classic;html=1;rounded=0;exitX=0;exitY=0;exitDx=0;exitDy=0;entryX=1;entryY=0.5;entryDx=0;entryDy=0;" edge="1" parent="1" source="Pl9r5RtDEmGn-0LGVPxG-4" target="Pl9r5RtDEmGn-0LGVPxG-3">
          <mxGeometry width="50" height="50" relative="1" as="geometry">
            <mxPoint x="283" y="359" as="sourcePoint" />
            <mxPoint x="341" y="311" as="targetPoint" />
          </mxGeometry>
        </mxCell>
        <mxCell id="Pl9r5RtDEmGn-0LGVPxG-20" value="" style="ellipse;whiteSpace=wrap;html=1;aspect=fixed;fillColor=#e1d5e7;strokeColor=#9673a6;" vertex="1" parent="1">
          <mxGeometry x="650" y="258" width="30" height="30" as="geometry" />
        </mxCell>
        <mxCell id="Pl9r5RtDEmGn-0LGVPxG-21" value="" style="endArrow=classic;html=1;rounded=0;exitX=0.5;exitY=1;exitDx=0;exitDy=0;entryX=0.5;entryY=0;entryDx=0;entryDy=0;" edge="1" parent="1" source="Pl9r5RtDEmGn-0LGVPxG-20" target="Pl9r5RtDEmGn-0LGVPxG-22">
          <mxGeometry width="50" height="50" relative="1" as="geometry">
            <mxPoint x="598" y="218" as="sourcePoint" />
            <mxPoint x="660" y="388" as="targetPoint" />
          </mxGeometry>
        </mxCell>
        <mxCell id="Pl9r5RtDEmGn-0LGVPxG-22" value="" style="ellipse;whiteSpace=wrap;html=1;aspect=fixed;fillColor=#e1d5e7;strokeColor=#9673a6;" vertex="1" parent="1">
          <mxGeometry x="650" y="338" width="30" height="30" as="geometry" />
        </mxCell>
        <mxCell id="Pl9r5RtDEmGn-0LGVPxG-23" value="" style="endArrow=classic;html=1;rounded=0;exitX=0.5;exitY=1;exitDx=0;exitDy=0;entryX=0.5;entryY=0;entryDx=0;entryDy=0;" edge="1" parent="1" target="Pl9r5RtDEmGn-0LGVPxG-24">
          <mxGeometry width="50" height="50" relative="1" as="geometry">
            <mxPoint x="665" y="368" as="sourcePoint" />
            <mxPoint x="660" y="468" as="targetPoint" />
          </mxGeometry>
        </mxCell>
        <mxCell id="Pl9r5RtDEmGn-0LGVPxG-24" value="" style="ellipse;whiteSpace=wrap;html=1;aspect=fixed;fillColor=#e1d5e7;strokeColor=#9673a6;" vertex="1" parent="1">
          <mxGeometry x="650" y="418" width="30" height="30" as="geometry" />
        </mxCell>
        <mxCell id="Pl9r5RtDEmGn-0LGVPxG-25" value="" style="endArrow=classic;html=1;rounded=0;exitX=0.5;exitY=1;exitDx=0;exitDy=0;entryX=0.5;entryY=0;entryDx=0;entryDy=0;" edge="1" parent="1" target="Pl9r5RtDEmGn-0LGVPxG-26">
          <mxGeometry width="50" height="50" relative="1" as="geometry">
            <mxPoint x="665" y="449" as="sourcePoint" />
            <mxPoint x="660" y="549" as="targetPoint" />
          </mxGeometry>
        </mxCell>
        <mxCell id="Pl9r5RtDEmGn-0LGVPxG-26" value="" style="ellipse;whiteSpace=wrap;html=1;aspect=fixed;fillColor=#e1d5e7;strokeColor=#9673a6;" vertex="1" parent="1">
          <mxGeometry x="650" y="499" width="30" height="30" as="geometry" />
        </mxCell>
        <mxCell id="Pl9r5RtDEmGn-0LGVPxG-28" value="&lt;font style=&quot;font-size: 24px;&quot;&gt;Graph&lt;/font&gt;" style="text;html=1;strokeColor=none;fillColor=none;align=center;verticalAlign=middle;whiteSpace=wrap;rounded=0;" vertex="1" parent="1">
          <mxGeometry x="265" y="170" width="100" height="50" as="geometry" />
        </mxCell>
        <mxCell id="Pl9r5RtDEmGn-0LGVPxG-29" value="&lt;font style=&quot;font-size: 24px;&quot;&gt;Linear&lt;/font&gt;" style="text;html=1;strokeColor=none;fillColor=none;align=center;verticalAlign=middle;whiteSpace=wrap;rounded=0;" vertex="1" parent="1">
          <mxGeometry x="615" y="170" width="100" height="50" as="geometry" />
        </mxCell>
      </root>
    </mxGraphModel>
  </diagram>
</mxfile>
